<?xml version="1.0" standalone="no"?>
<!DOCTYPE svg PUBLIC "-//W3C//DTD SVG 20010904//EN"
 "http://www.w3.org/TR/2001/REC-SVG-20010904/DTD/svg10.dtd">
<svg version="1.0" xmlns="http://www.w3.org/2000/svg"
 width="320.000000pt" height="320.000000pt" viewBox="0 0 320.000000 320.000000"
 preserveAspectRatio="xMidYMid meet">

<g transform="translate(0.000000,320.000000) scale(0.100000,-0.100000)"
fill="#FFFFFF" stroke="none">
<path d="M1425 2999 c-522 -70 -960 -406 -1156 -885 -154 -377 -141 -805 36
-1170 156 -323 434 -581 770 -714 89 -35 118 -37 145 -10 18 18 20 33 20 170
l0 150 -27 -7 c-16 -4 -73 -7 -128 -7 -180 1 -261 51 -340 208 -46 92 -78 131
-179 214 -32 27 -30 43 8 57 65 23 181 -40 245 -133 44 -65 106 -129 134 -138
15 -5 16 -8 6 -20 -9 -10 -9 -18 -2 -25 14 -14 49 -7 45 9 -1 7 8 12 20 11 27
-1 79 -17 61 -18 -18 -1 -16 -28 1 -34 19 -8 53 17 38 27 -20 12 -13 26 11 26
13 0 43 7 68 15 42 14 45 18 57 68 6 28 25 71 41 94 32 45 31 53 -9 53 -56 0
-222 50 -300 90 -140 74 -237 199 -282 369 -29 108 -31 333 -4 411 25 74 58
137 94 182 29 38 29 38 16 95 -18 77 -17 149 2 234 20 87 34 102 88 94 69 -10
180 -54 258 -102 l73 -45 95 18 c133 26 419 26 542 0 l88 -18 77 45 c122 72
257 116 305 101 42 -13 71 -214 45 -322 l-14 -62 30 -38 c68 -84 117 -233 117
-357 0 -84 -24 -229 -49 -299 -77 -218 -276 -362 -542 -392 -32 -4 -59 -9 -59
-11 0 -2 11 -19 25 -37 53 -70 58 -100 64 -394 6 -256 7 -275 25 -288 30 -22
63 -17 163 25 448 186 761 568 865 1055 28 132 31 385 5 523 -109 591 -547
1040 -1136 1163 -112 24 -350 34 -456 19z"/>
<path d="M662 968 c3 -7 13 -15 22 -16 12 -3 17 1 14 10 -3 7 -13 15 -22 16
-12 3 -17 -1 -14 -10z"/>
<path d="M730 922 c0 -4 5 -13 12 -20 18 -18 28 -15 28 8 0 13 -7 20 -20 20
-11 0 -20 -4 -20 -8z"/>
<path d="M780 848 c0 -16 19 -38 33 -38 4 0 7 10 5 22 -3 25 -38 39 -38 16z"/>
<path d="M855 760 c-8 -13 13 -40 31 -40 17 0 18 22 2 38 -15 15 -25 15 -33 2z"/>
<path d="M1203 693 c-15 -6 -17 -29 -3 -38 5 -3 19 -1 30 5 17 9 19 14 9 26
-12 15 -16 16 -36 7z"/>
</g>
</svg>
